<?xml version="1.0" standalone="no"?>
<!DOCTYPE svg PUBLIC "-//W3C//DTD SVG 20010904//EN"
 "http://www.w3.org/TR/2001/REC-SVG-20010904/DTD/svg10.dtd">
<svg version="1.0" xmlns="http://www.w3.org/2000/svg"
 width="623.000000pt" height="767.000000pt" viewBox="0 0 623.000000 767.000000"
 preserveAspectRatio="xMidYMid meet">

<g transform="translate(0.000000,767.000000) scale(0.100000,-0.100000)"
fill="#000000" stroke="none">
<path d="M1561 6635 c-849 -305 -1547 -558 -1551 -562 -6 -7 464 -4121 472
-4128 5 -4 2569 -1430 2605 -1448 l31 -17 1314 731 c722 402 1314 732 1316
734 8 7 478 4121 471 4128 -7 9 -3056 1104 -3094 1112 -11 2 -715 -245 -1564
-550z m2532 -2382 c532 -1195 967 -2175 967 -2178 0 -3 -163 -4 -362 -3 l-362
3 -196 487 -195 488 -830 -3 -829 -2 -195 -487 -195 -488 -364 0 c-287 0 -363
3 -359 13 2 6 433 975 957 2152 524 1177 959 2155 967 2174 8 18 18 30 22 25
4 -5 443 -986 974 -2181z"/>
<path d="M2835 4353 c-153 -367 -280 -676 -283 -685 -4 -17 27 -18 562 -18
311 0 566 4 566 9 0 8 -545 1324 -559 1349 -5 9 -116 -246 -286 -655z"/>
</g>
</svg>
